<svg width="34" height="34" viewBox="0 0 34 34" fill="none" xmlns="http://www.w3.org/2000/svg">
<path d="M33.9461 4.72525C33.8035 4.20088 33.4041 3.80599 32.8777 3.66894L30.8541 3.14217L30.3266 1.121C30.1894 0.595166 29.7941 0.196228 29.2691 0.0538021C28.7442 -0.0886237 28.2009 0.0556604 27.8162 0.439931L25.2389 3.01422C24.858 3.39457 24.7105 3.95306 24.854 4.47166L25.7104 7.56647L24.8607 8.41518C23.8433 7.4695 22.695 6.66599 21.4441 6.03529C21.1984 5.91145 20.8987 6.00994 20.7747 6.2553C20.6507 6.50073 20.7493 6.80005 20.995 6.92396C22.151 7.5068 23.2132 8.24774 24.1556 9.11928L22.1632 11.1093C20.2127 9.34049 17.6245 8.26121 14.7887 8.26121C8.73353 8.26121 3.80744 13.1814 3.80744 19.2291C3.80744 20.8099 4.14453 22.3134 4.74988 23.6725C3.76923 23.7534 2.8652 24.1074 2.11486 24.6594C1.39588 22.9923 0.996728 21.1565 0.996728 19.2291C0.996728 11.6334 7.18375 5.45391 14.7887 5.45391C16.1876 5.45391 17.5675 5.66224 18.8901 6.07312C19.1533 6.15482 19.4323 6.00815 19.514 5.74566C19.5957 5.48317 19.449 5.20416 19.1862 5.12253C17.7676 4.68185 16.2881 4.45838 14.7887 4.45838C10.8385 4.45838 7.12468 5.99481 4.33145 8.78465C1.53822 11.5745 0 15.2838 0 19.2292C0 21.3834 0.459824 23.4666 1.3309 25.3688C0.504212 26.2858 0 27.4984 0 28.8266C0 29.3956 0.0919648 29.9549 0.273436 30.4892C0.361879 30.7496 0.64495 30.8891 0.905428 30.8007C1.16611 30.7125 1.30571 30.4298 1.21734 30.1695C1.07095 29.7384 0.996728 29.2866 0.996728 28.8266C0.996728 26.523 2.87317 24.6488 5.1796 24.6488C7.48603 24.6488 9.36247 26.523 9.36247 28.8266C9.36247 31.1302 7.48603 33.0044 5.1796 33.0044C4.12918 33.0044 3.12494 32.614 2.35175 31.9051C2.14895 31.7192 1.83378 31.7326 1.64759 31.9352C1.46147 32.1377 1.47489 32.4526 1.67769 32.6385C2.63528 33.5164 3.87887 34 5.1796 34C6.50943 34 7.72345 33.4965 8.64157 32.6708C10.546 33.5408 12.6319 34 14.7887 34C18.7389 34 22.4526 32.4636 25.2459 29.6737C28.039 26.8839 29.5774 23.1746 29.5774 19.2292C29.5774 16.4431 28.7967 13.7293 27.3196 11.3814C26.808 10.5681 26.2197 9.8113 25.5671 9.11742L26.41 8.27554L29.523 9.13488C29.6543 9.17111 29.7881 9.18877 29.921 9.18877C30.3135 9.18877 30.6976 9.03466 30.9822 8.75047L33.5596 6.17619C33.9442 5.79205 34.0888 5.24962 33.9461 4.72525ZM5.86508 23.7C5.18657 22.3545 4.80416 20.8357 4.80416 19.2292C4.80416 13.7304 9.28319 9.2568 14.7887 9.2568C17.3496 9.2568 19.6882 10.2252 21.4575 11.8142L19.4534 13.8159C18.2 12.7369 16.5693 12.0836 14.7887 12.0836C10.8437 12.0836 7.63434 15.2891 7.63434 19.2293C7.63434 23.1694 10.8437 26.3749 14.7887 26.3749C18.7336 26.3749 21.943 23.1694 21.943 19.2293C21.943 17.4252 21.2698 15.7754 20.1616 14.5165L22.1651 12.5155C23.7844 14.2888 24.7732 16.6458 24.7732 19.2293C24.7732 24.7281 20.2942 29.2017 14.7887 29.2017C13.1801 29.2017 11.6596 28.8188 10.3124 28.1409C10.0051 25.8357 8.17324 24.0064 5.86508 23.7ZM14.3496 19.6175C14.4468 19.7147 14.5744 19.7633 14.7019 19.7633C14.8295 19.7633 14.957 19.7147 15.0543 19.6175L16.8692 17.8049C17.1483 18.2104 17.3122 18.701 17.3122 19.2292C17.3122 20.6189 16.1801 21.7497 14.7887 21.7497C13.3972 21.7497 12.2651 20.6189 12.2651 19.2292C12.2651 17.8394 13.3972 16.7087 14.7887 16.7087C15.2915 16.7087 15.7601 16.857 16.154 17.1113L14.3496 18.9135C14.1549 19.1079 14.1549 19.4231 14.3496 19.6175ZM16.8702 16.396C16.2867 15.9672 15.567 15.7132 14.7887 15.7132C12.8476 15.7132 11.2684 17.2905 11.2684 19.2292C11.2684 21.1679 12.8476 22.7452 14.7887 22.7452C16.7297 22.7452 18.3089 21.1679 18.3089 19.2292C18.3089 18.4261 18.0373 17.6855 17.582 17.0929L19.4555 15.2216C20.3841 16.2988 20.9462 17.6996 20.9462 19.2292C20.9462 22.6204 18.1839 25.3793 14.7886 25.3793C11.3933 25.3793 8.631 22.6204 8.631 19.2292C8.631 15.838 11.3933 13.0791 14.7886 13.0791C16.2944 13.0791 17.6754 13.622 18.7465 14.5218L16.8702 16.396ZM26.4756 11.9111C27.8528 14.1001 28.5807 16.6308 28.5807 19.2292C28.5807 26.8249 22.3936 33.0044 14.7887 33.0044C12.8591 33.0044 11.0215 32.605 9.35237 31.887C9.90489 31.1375 10.2593 30.2344 10.3401 29.2548C11.7009 29.8596 13.2059 30.1972 14.7887 30.1972C20.8438 30.1972 25.7699 25.277 25.7699 19.2293C25.7699 16.3713 24.6694 13.7656 22.87 11.8114L24.862 9.82185C25.4622 10.463 26.0039 11.1612 26.4756 11.9111ZM25.8147 4.20645C25.7666 4.0327 25.8161 3.84561 25.9436 3.71818L28.5209 1.1439C28.639 1.02596 28.7695 0.996361 28.8706 0.996361C28.9286 0.996361 28.977 1.00612 29.0078 1.01448C29.0922 1.03738 29.2958 1.11808 29.362 1.372L29.8912 3.39975L28.6057 4.6837C28.5854 4.69857 28.5656 4.7147 28.5472 4.73302L26.5205 6.75724L25.8147 4.20645ZM32.8548 5.47236L30.2773 8.04664C30.1498 8.17407 29.9625 8.22351 29.7886 8.17539L27.2274 7.46838L30.5962 4.10371L32.6264 4.6322C32.8806 4.69844 32.9614 4.90179 32.9843 4.98614C33.0073 5.0705 33.0405 5.28679 32.8548 5.47236Z" fill="#243D4D"/>
<path d="M3.47411 30.9439C3.7712 31.2687 4.19414 31.4556 4.63463 31.4568H4.63848C5.07758 31.4568 5.49992 31.2721 5.79775 30.9496L8.02045 28.5432C8.27422 28.2684 8.40572 27.9114 8.39064 27.5379C8.37555 27.1643 8.21574 26.819 7.94071 26.5656C7.37278 26.0423 6.48456 26.078 5.96054 26.6452L4.64712 28.0672L4.40259 27.8025C3.87785 27.2344 2.98817 27.1985 2.41937 27.7226C1.85329 28.2442 1.81542 29.1306 2.33485 29.6985L3.47411 30.9439ZM3.09522 28.4542C3.17329 28.3823 3.27217 28.3467 3.37085 28.3467C3.48055 28.3467 3.58993 28.3906 3.67 28.4773L4.15653 29.0041C4.28252 29.1405 4.46133 29.2187 4.64719 29.2187C4.83305 29.2187 5.01179 29.1405 5.13785 29.0041L6.69314 27.3202C6.84444 27.1563 7.10087 27.1461 7.2648 27.2971C7.3442 27.3703 7.39038 27.47 7.3947 27.5778C7.39902 27.6857 7.36108 27.7887 7.28779 27.8681L5.06508 30.2746C4.95392 30.3949 4.80248 30.4612 4.63855 30.4612C4.63809 30.4612 4.63755 30.4612 4.63709 30.4612C4.47263 30.4608 4.32093 30.3937 4.20996 30.2724L3.07063 29.0268C2.92012 28.8622 2.93116 28.6054 3.09522 28.4542Z" fill="#243D4D"/>
</svg>
