<svg width="33" height="27" viewBox="0 0 33 27" fill="none" xmlns="http://www.w3.org/2000/svg">
<path d="M31.8313 0H0.568706C0.417876 0 0.273223 0.063711 0.16657 0.177117C0.0599173 0.290523 0 0.444335 0 0.604715V26.3953C0 26.5557 0.0599173 26.7095 0.16657 26.8229C0.273223 26.9363 0.417876 27 0.568706 27H27.2491C27.3238 27 27.3977 26.9844 27.4667 26.9541C27.5357 26.9237 27.5983 26.8792 27.6511 26.8231L32.2333 21.9508C32.34 21.8375 32.3999 21.6837 32.4 21.5234V0.604715C32.4 0.444335 32.3401 0.290523 32.2334 0.177117C32.1268 0.063711 31.9821 0 31.8313 0ZM31.2626 1.20943V5.84569H1.13741V1.20943H31.2626ZM1.13741 7.05512H31.2626V20.9186H27.2491C27.1745 20.9186 27.1005 20.9342 27.0315 20.9646C26.9624 20.995 26.8997 21.0395 26.8469 21.0957C26.7941 21.1518 26.7522 21.2185 26.7236 21.2919C26.6951 21.3653 26.6804 21.4439 26.6804 21.5234V25.7906H1.13741V7.05512ZM30.458 22.1281L27.8179 24.9357V22.1281H30.458Z" fill="#182832"/>
<path d="M4.1436 4.53154C4.32999 4.53154 4.5122 4.47277 4.66718 4.36265C4.82217 4.25254 4.94296 4.09604 5.01429 3.91293C5.08562 3.72982 5.10428 3.52833 5.06792 3.33394C5.03156 3.13955 4.9418 2.961 4.81 2.82085C4.6782 2.68071 4.51027 2.58527 4.32746 2.5466C4.14464 2.50793 3.95515 2.52778 3.78295 2.60362C3.61074 2.67947 3.46356 2.80791 3.36 2.97271C3.25644 3.1375 3.20117 3.33125 3.20117 3.52944C3.20117 3.79521 3.30046 4.0501 3.4772 4.23803C3.65394 4.42596 3.89365 4.53154 4.1436 4.53154Z" fill="#182832"/>
<path d="M7.94535 4.53154C8.13175 4.53154 8.31396 4.47277 8.46894 4.36265C8.62392 4.25254 8.74471 4.09604 8.81604 3.91293C8.88737 3.72982 8.90604 3.52833 8.86967 3.33394C8.83331 3.13955 8.74355 2.961 8.61175 2.82085C8.47995 2.68071 8.31203 2.58527 8.12921 2.5466C7.9464 2.50793 7.75691 2.52778 7.5847 2.60362C7.4125 2.67947 7.26531 2.80791 7.16176 2.97271C7.0582 3.1375 7.00293 3.33125 7.00293 3.52944C7.00293 3.79521 7.10222 4.0501 7.27896 4.23803C7.4557 4.42596 7.69541 4.53154 7.94535 4.53154Z" fill="#182832"/>
<path d="M11.7452 4.53154C11.9316 4.53154 12.1138 4.47277 12.2687 4.36265C12.4237 4.25254 12.5445 4.09604 12.6158 3.91293C12.6872 3.72982 12.7058 3.52833 12.6695 3.33394C12.6331 3.13955 12.5434 2.961 12.4116 2.82085C12.2798 2.68071 12.1118 2.58527 11.929 2.5466C11.7462 2.50793 11.5567 2.52778 11.3845 2.60362C11.2123 2.67947 11.0651 2.80791 10.9616 2.97271C10.858 3.1375 10.8027 3.33125 10.8027 3.52944C10.8027 3.79521 10.902 4.0501 11.0788 4.23803C11.2555 4.42596 11.4952 4.53154 11.7452 4.53154Z" fill="#182832"/>
<path d="M8.83593 8.57526C7.64593 8.57414 6.48507 8.96672 5.51431 9.69858C4.54355 10.4304 3.81096 11.4653 3.41813 12.6597C3.02529 13.8541 2.99167 15.1489 3.32191 16.3646C3.65215 17.5802 4.3299 18.6565 5.2612 19.4442C5.29846 19.4832 5.34056 19.5166 5.38632 19.5434C6.37796 20.3456 7.5896 20.78 8.8356 20.78C10.0816 20.78 11.2932 20.3456 12.2849 19.5434C12.3315 19.5163 12.3743 19.4823 12.412 19.4425C13.343 18.6547 14.0205 17.5785 14.3506 16.363C14.6807 15.1474 14.647 13.8528 14.2542 12.6586C13.8614 11.4643 13.1289 10.4296 12.1583 9.69776C11.1877 8.96594 10.0271 8.57328 8.83723 8.57422L8.83593 8.57526ZM6.32322 18.7725C6.50588 18.2189 6.84576 17.7392 7.29589 17.3999C7.74602 17.0606 8.28416 16.8783 8.83593 16.8783C9.3877 16.8783 9.92584 17.0606 10.376 17.3999C10.8261 17.7392 11.166 18.2189 11.3486 18.7725C10.6022 19.2936 9.72883 19.5712 8.83593 19.5712C7.94303 19.5712 7.06962 19.2936 6.32322 18.7725ZM7.11551 13.8397C7.11545 13.4779 7.21629 13.1242 7.4053 12.8233C7.5943 12.5224 7.86297 12.2879 8.17733 12.1494C8.49169 12.0109 8.83762 11.9746 9.17137 12.0451C9.50512 12.1157 9.81169 12.2899 10.0523 12.5457C10.293 12.8015 10.4569 13.1275 10.5233 13.4824C10.5897 13.8372 10.5556 14.2051 10.4254 14.5394C10.2952 14.8737 10.0747 15.1594 9.79177 15.3604C9.50885 15.5614 9.17621 15.6687 8.83593 15.6687C8.37986 15.6682 7.94261 15.4753 7.62009 15.1324C7.29757 14.7896 7.11611 14.3247 7.11551 13.8397ZM12.254 17.9428C11.9075 17.1931 11.3525 16.5749 10.6642 16.1722C11.1157 15.7726 11.4404 15.2347 11.5941 14.6318C11.7477 14.029 11.723 13.3904 11.5231 12.803C11.3233 12.2157 10.9581 11.708 10.4772 11.3493C9.99635 10.9905 9.42319 10.798 8.83577 10.798C8.24834 10.798 7.67518 10.9905 7.19431 11.3493C6.71345 11.708 6.34823 12.2157 6.14839 12.803C5.94855 13.3904 5.92379 14.029 6.07748 14.6318C6.23117 15.2347 6.55584 15.7726 7.00729 16.1722C6.31904 16.5748 5.76408 17.193 5.41784 17.9428C4.82198 17.24 4.43055 16.3685 4.29094 15.434C4.15133 14.4995 4.26954 13.5419 4.63126 12.6774C4.99297 11.8128 5.58267 11.0783 6.32894 10.5628C7.0752 10.0473 7.94602 9.77299 8.83593 9.77299C9.72583 9.77299 10.5967 10.0473 11.3429 10.5628C12.0892 11.0783 12.6789 11.8128 13.0406 12.6774C13.4023 13.5419 13.5205 14.4995 13.3809 15.434C13.2413 16.3685 12.8499 17.24 12.254 17.9428Z" fill="#182832"/>
<path d="M17.1078 11.0571H22.2297C22.3805 11.0571 22.5252 10.9934 22.6318 10.88C22.7385 10.7666 22.7984 10.6128 22.7984 10.4524C22.7984 10.292 22.7385 10.1382 22.6318 10.0248C22.5252 9.91137 22.3805 9.84766 22.2297 9.84766H17.1078C16.9569 9.84766 16.8123 9.91137 16.7056 10.0248C16.599 10.1382 16.5391 10.292 16.5391 10.4524C16.5391 10.6128 16.599 10.7666 16.7056 10.88C16.8123 10.9934 16.9569 11.0571 17.1078 11.0571Z" fill="#182832"/>
<path d="M17.1078 14.8813H29.0941C29.245 14.8813 29.3896 14.8176 29.4963 14.7042C29.6029 14.5908 29.6629 14.437 29.6629 14.2766C29.6629 14.1162 29.6029 13.9624 29.4963 13.849C29.3896 13.7356 29.245 13.6719 29.0941 13.6719H17.1078C16.9569 13.6719 16.8123 13.7356 16.7056 13.849C16.599 13.9624 16.5391 14.1162 16.5391 14.2766C16.5391 14.437 16.599 14.5908 16.7056 14.7042C16.8123 14.8176 16.9569 14.8813 17.1078 14.8813Z" fill="#182832"/>
<path d="M29.0941 18.7055C29.245 18.7055 29.3896 18.6418 29.4963 18.5284C29.6029 18.415 29.6629 18.2612 29.6629 18.1008C29.6629 17.9404 29.6029 17.7866 29.4963 17.6732C29.3896 17.5598 29.245 17.4961 29.0941 17.4961H17.1078C16.9569 17.4961 16.8123 17.5598 16.7056 17.6732C16.599 17.7866 16.5391 17.9404 16.5391 18.1008C16.5391 18.2612 16.599 18.415 16.7056 18.5284C16.8123 18.6418 16.9569 18.7055 17.1078 18.7055H29.0941Z" fill="#182832"/>
</svg>
